<?xml version="1.0" standalone="no"?>
<!DOCTYPE svg PUBLIC "-//W3C//DTD SVG 20010904//EN"
 "http://www.w3.org/TR/2001/REC-SVG-20010904/DTD/svg10.dtd">
<svg version="1.0" xmlns="http://www.w3.org/2000/svg"
 width="400.000000pt" height="400.000000pt" viewBox="0 0 400.000000 400.000000"
 preserveAspectRatio="xMidYMid meet">
<metadata>
Created by potrace 1.16, written by Peter Selinger 2001-2019
</metadata>
<g transform="translate(0.000000,400.000000) scale(0.100000,-0.100000)"
fill="#000000" stroke="none">
<path d="M0 2000 l0 -2000 2000 0 2000 0 0 2000 0 2000 -2000 0 -2000 0 0
-2000z m3200 947 c0 -8 -34 -157 -75 -333 -41 -175 -81 -348 -89 -384 -108
-468 -168 -728 -172 -742 -5 -17 -47 -18 -695 -18 -379 0 -689 -3 -689 -7 0
-5 70 -37 155 -73 85 -36 155 -67 155 -70 0 -3 -6 -27 -13 -55 l-13 -50 -370
-5 -369 -5 83 -38 c86 -39 91 -46 76 -105 -6 -22 -8 -22 -195 -22 -145 0 -189
3 -189 13 0 6 31 143 68 302 l67 290 113 3 c61 1 112 4 112 6 0 6 130 556 141
599 l10 37 208 0 209 0 16 68 c39 165 136 590 136 596 0 3 297 6 660 6 543 0
660 -2 660 -13z"/>
</g>
</svg>
