<?xml version="1.0" standalone="no"?>
<!DOCTYPE svg PUBLIC "-//W3C//DTD SVG 20010904//EN"
 "http://www.w3.org/TR/2001/REC-SVG-20010904/DTD/svg10.dtd">
<svg version="1.0" xmlns="http://www.w3.org/2000/svg"
 width="225.000000pt" height="225.000000pt" viewBox="0 0 225.000000 225.000000"
 preserveAspectRatio="xMidYMid meet">
<g transform="translate(0.000000,225.000000) scale(0.100000,-0.100000)"
fill="#000000" stroke="none">
<path d="M0 1125 l0 -1125 1125 0 1125 0 0 1125 0 1125 -1125 0 -1125 0 0
-1125z m1355 759 c108 -21 297 -21 413 1 121 23 123 22 106 -52 -37 -153 -37
-371 0 -510 8 -30 10 -55 5 -60 -5 -5 -45 -1 -97 9 -116 25 -307 26 -430 3
-50 -9 -98 -15 -106 -12 -11 5 -11 16 2 69 23 89 23 407 0 495 -9 34 -13 64
-10 67 8 9 31 7 117 -10z m-221 -81 c2 -10 6 -115 8 -233 l3 -214 -57 -3 c-99
-4 -170 -49 -213 -134 -29 -56 -34 -149 -12 -202 63 -148 263 -196 386 -91 51
44 74 95 81 174 l5 65 110 3 c61 2 165 0 233 -3 l122 -7 0 -82 c0 -176 -72
-348 -200 -475 -86 -87 -157 -132 -273 -174 -109 -39 -288 -49 -400 -23 -329
79 -557 365 -559 701 -1 123 20 213 72 320 71 147 186 261 333 331 99 46 167
63 269 63 74 1 87 -1 92 -16z"/>
</g>
</svg>
