<?xml version="1.0" standalone="no"?>
<!DOCTYPE svg PUBLIC "-//W3C//DTD SVG 20010904//EN"
 "http://www.w3.org/TR/2001/REC-SVG-20010904/DTD/svg10.dtd">
<svg version="1.0" xmlns="http://www.w3.org/2000/svg"
 width="622.000000pt" height="591.000000pt" viewBox="0 0 622.000000 591.000000"
 preserveAspectRatio="xMidYMid meet">

<g transform="translate(0.000000,591.000000) scale(0.100000,-0.100000)"
fill="#000000" stroke="none">
<path d="M2846 5254 c-56 -29 -295 -124 -533 -210 l-162 -59 -5 -80 c-3 -44
-11 -150 -17 -235 -19 -288 -62 -543 -165 -991 -62 -271 -66 -319 -29 -343 13
-9 30 -16 36 -16 31 0 311 160 363 208 39 37 103 175 239 517 202 510 394
1056 404 1152 5 49 5 52 -25 67 -40 21 -48 20 -106 -10z"/>
<path d="M4299 4078 c-107 -80 -449 -238 -743 -342 -181 -65 -573 -187 -660
-207 -52 -11 -60 -17 -72 -46 -8 -18 -14 -45 -14 -60 0 -32 14 -42 250 -184
l145 -87 285 34 c624 74 1435 209 1497 249 29 20 38 56 21 91 -7 15 -42 50
-78 77 -107 83 -326 275 -455 399 l-122 117 -54 -41z"/>
<path d="M3424 2825 c-58 -24 -59 -28 -62 -274 l-3 -226 158 -220 c290 -403
470 -638 739 -965 234 -285 236 -286 283 -236 28 30 35 56 66 256 14 91 41
248 60 350 19 102 35 207 37 233 l3 49 -94 59 c-131 83 -320 219 -421 303
-188 156 -602 545 -663 621 -46 59 -63 67 -103 50z"/>
</g>
</svg>
