<svg xmlns="http://www.w3.org/2000/svg" viewBox="23.8789005279541 21.220699310302734 9.978181838989258 4.415800094604492"><g xmlns="http://www.w3.org/2000/svg" clip-path="url(#clip2_4512_23883)">
<path d="M25.991 21.2207C26.5345 21.2207 26.868 21.3751 27.1829 21.6901C27.2509 21.7581 27.3003 21.7519 27.3621 21.6901C27.677 21.3751 28.1155 21.2207 28.7578 21.2207C29.431 21.2207 29.8695 21.3751 30.1845 21.6901C30.2462 21.7519 30.3019 21.7519 30.3636 21.6901C30.6786 21.3751 31.043 21.2207 31.5865 21.2207C32.8402 21.2207 33.6925 22.1162 33.6925 23.407C33.6925 23.9566 33.5319 24.4384 33.254 24.8089C33.2417 24.8275 33.2417 24.8584 33.2602 24.8769L33.8346 25.4636C33.884 25.5192 33.8469 25.6118 33.7728 25.6118H31.709C31.0914 25.618 30.7265 25.4821 30.4116 25.1671C30.3559 25.1115 30.2881 25.1054 30.2263 25.1671C29.9113 25.4821 29.4857 25.6365 28.8372 25.6365C28.1579 25.6365 27.708 25.4821 27.393 25.1671C27.3313 25.1054 27.2757 25.0991 27.2139 25.1671C26.9175 25.4821 26.516 25.6365 25.9911 25.6365C24.7374 25.6365 23.8789 24.7348 23.8789 23.4255C23.8788 22.1162 24.7373 21.2207 25.991 21.2207ZM25.2857 24.8646H26.7989C26.9162 24.8646 27.0088 24.7658 27.0088 24.6546L27.0101 24.1297C27.0101 24.0803 27.0534 24.037 27.1028 24.037H27.6463C27.6957 24.037 27.7389 24.0803 27.7389 24.1297V24.6546C27.7389 24.772 27.8377 24.8646 27.9551 24.8646H29.6288C29.7523 24.8646 29.845 24.8399 29.845 24.6854V24.3396C29.845 24.1729 29.7956 24.0926 29.635 24.0494L28.0725 23.617C27.3437 23.4132 27.0041 22.9067 27.0041 22.3448V22.1903C27.0041 22.0606 26.9176 21.9742 26.8002 21.9742H25.2869C24.972 21.9742 24.725 22.2212 24.725 22.5361L24.7237 24.3086C24.7237 24.6175 24.9769 24.8646 25.2857 24.8646ZM32.3471 24.8646L31.6235 24.1358C31.5803 24.0925 31.5865 24.0494 31.6297 24.0061L31.9508 23.6788C31.9941 23.6355 32.0435 23.6478 32.0806 23.6849L32.6611 24.2716C32.7291 24.3396 32.8464 24.2963 32.8464 24.1975V22.53C32.8464 22.2213 32.5931 21.9742 32.2844 21.9742H30.7403C30.623 21.9742 30.5242 22.0668 30.5242 22.1841V22.6967C30.5242 22.7461 30.4809 22.7894 30.4315 22.7894H29.8819C29.8325 22.7894 29.7892 22.7461 29.7892 22.6967V22.2026C29.7892 22.0729 29.6904 21.9741 29.5607 21.9741H27.9426C27.8252 21.9741 27.7326 22.0605 27.7326 22.1779V22.5485C27.7326 22.6967 27.8006 22.777 27.9241 22.8141L29.431 23.2402C30.2339 23.4687 30.5921 23.9443 30.5921 24.5495V24.6545C30.5921 24.7904 30.6789 24.8645 30.8148 24.8645H32.3471V24.8646Z" fill="#000"></path>
</g></svg>