<?xml version="1.0" standalone="no"?>
<!DOCTYPE svg PUBLIC "-//W3C//DTD SVG 20010904//EN"
 "http://www.w3.org/TR/2001/REC-SVG-20010904/DTD/svg10.dtd">
<svg version="1.0" xmlns="http://www.w3.org/2000/svg"
 width="240.000000pt" height="240.000000pt" viewBox="0 0 240.000000 240.000000"
 preserveAspectRatio="xMidYMid meet">

<g transform="translate(0.000000,240.000000) scale(0.100000,-0.100000)"
fill="#000000" stroke="none">
<path d="M0 1200 l0 -1200 1200 0 1200 0 0 1200 0 1200 -1200 0 -1200 0 0
-1200z m1516 736 c-24 -269 -133 -417 -431 -586 -214 -121 -263 -176 -286
-317 l-12 -73 -153 0 -154 0 0 53 c0 81 26 185 66 265 66 134 186 240 418 368
159 88 223 170 234 301 l5 63 160 0 160 0 -7 -74z m404 -548 c0 -82 -26 -186
-66 -266 -66 -134 -186 -240 -418 -368 -159 -88 -223 -170 -234 -301 l-5 -63
-160 0 -160 0 7 74 c24 269 133 417 431 586 214 121 263 176 286 317 l12 73
153 0 154 0 0 -52z"/>
</g>
</svg>
